<?xml version="1.0" encoding="UTF-8" standalone="no"?>
<!-- Created with Inkscape (http://www.inkscape.org/) -->

<svg
   width="8.6602592mm"
   height="9.7999992mm"
   viewBox="0 0 8.6602592 9.7999992"
   version="1.1"
   id="svg1"
   xmlns="http://www.w3.org/2000/svg"
   xmlns:svg="http://www.w3.org/2000/svg">
  <defs
     id="defs1" />
  <g
     id="layer1"
     transform="translate(-69.282031,-160.50002)">
    <path
       style="fill:#000000;stroke-width:0.264583"
       d="m 69.28203,163 v 2"
       id="path20-3" />
    <path
       id="path22-6"
       style="fill:#adc178;fill-opacity:1;stroke-width:0.264583"
       d="m 73.612158,165.5 v 2 l 0.866024,-0.5 v -1 l 0.866026,-0.5 v 2 l 0.866026,-0.5 v -1 l 0.866024,-0.5 v -1 l 0.866026,-0.49999 V 163 Z M 69.282032,163 v 2 l 0.866026,0.5 v -1 l 0.866026,0.5 v 2 l 0.866024,0.5 v -1 l 0.866026,0.5 v -1 l 0.866026,0.5 v -1 z m -10e-7,0 4.330127,2.5 4.330126,-2.5 -4.330126,-2.5 z" />
    <path
       id="path27-1"
       style="fill:#a98467;fill-opacity:1;stroke-width:0.264583"
       d="m 73.438954,167.60001 0.173204,0.1 0.173204,-0.1 V 170.2 L 73.612158,170.30001 73.438954,170.2 Z m 0.34641,0 v 2.6 l 3.983717,-2.3 v -3.6 l -0.519615,0.3 v 1 l -0.866025,0.5 v 1 l -1.212436,0.7 v -2 l -0.519615,0.3 v 1 z m -4.330127,-2.3 v 2.6 l 3.983717,2.3 v -3.6 l -0.519615,-0.3 v 1 l -0.866025,-0.5 v 1 l -1.212436,-0.7 v -2 l -0.519615,-0.3 v 1 z" />
  </g>
</svg>
