<svg xmlns="http://www.w3.org/2000/svg" viewBox="0 0 19.138 3.087"><path d="M9.878 3.087h.617V1.235h.309v1.852h.617V1.235h.309v1.852h.617V.926h-.309V.617h-.617v.309h-.309V.617H9.878zm4.013-.617h-.617v-.309h.617zm-.926.617h1.543V.926H14.2V.617h-1.543v.617h1.235v.309h-.926v.309h-.309v.926h.309zm2.161 0h.926v-.617h-.617V1.235h.617V.617h-.617V0h-.617v2.778h.309zm1.235 0h.617V.926h-.617zm0-2.469h.617V0h-.617zm1.235 2.469h1.235v-.309h.309v-.617h-.617v.309h-.617V1.235h.617v.309h.617V.926h-.309V.617h-1.235v.309h-.309v1.852h.309z" fill="#a98467"/><path d="M1.235 2.469H.618V1.235h.617zM0 3.087h1.543v-.309h.309V.926h-.309V.617H.618V0H0zm2.469 0h.617v-.617h-.309V0h-.617v2.778h.309zm2.161-.617h-.617V1.235h.617zm-.926.617h1.235v-.309h.309V.926h-.309V.617H3.704v.309h-.309v1.852h.309zm2.161 0H7.1v-.309h.309v-.617h-.617v.309h-.617V1.235h.617v.309h.617V.926H7.1V.617H5.865v.309h-.309v1.852h.309zm1.852 0h.617v-.926h.617v.926h.617V1.852h-.309v-.309h.309V.617h-.617v.926h-.617V0h-.617z" fill="#adc178"/></svg>