<svg xmlns="http://www.w3.org/2000/svg" width="108.336" height="37.039" viewBox="0 0 28.664 9.8"><path d="M0 2.5v2"/><path d="M4.33 5v2l.866-.5v-1l.866-.5v2l.866-.5v-1l.866-.5V4l.866-.5v-1zM0 2.5v2l.866.5V4l.866.5v2l.866.5V6l.866.5v-1l.866.5V5zm0 0L4.33 5l4.33-2.5L4.33 0z" fill="#adc178"/><path d="M4.157 7.1l.173.1.173-.1v2.6l-.173.1-.173-.1zm.346 0v2.6l3.984-2.3V3.8l-.52.3v1l-.866.5v1l-1.212.7v-2l-.52.3v1zM.173 4.8v2.6l3.984 2.3V6.1l-.52-.3v1l-.866-.5v1l-1.212-.7v-2l-.52-.3v1zm19.231 2.287h.617V5.235h.309v1.852h.617V5.235h.309v1.852h.617V4.926h-.309v-.309h-.617v.309h-.309v-.309h-1.235zm4.013-.617H22.8v-.309h.617zm-.926.617h1.543V4.926h-.309v-.309h-1.543v.617h1.235v.309h-.926v.309h-.309v.926h.309zm2.161 0h.926V6.47h-.617V5.235h.617v-.617h-.617V4h-.617v2.778h.309zm1.235 0h.617V4.926h-.617zm0-2.469h.617V4h-.617zm1.235 2.469h1.235v-.309h.309v-.617h-.617v.309h-.617V5.235h.617v.309h.617v-.617h-.309v-.309h-1.235v.309h-.309v1.852h.309z" fill="#a98467"/><path d="M10.761 6.469h-.617V5.235h.617zm-1.235.617h1.543v-.309h.309V4.926h-.309v-.309h-.926V4h-.617zm2.469 0h.617v-.617h-.309V4h-.617v2.778h.309zm2.161-.617h-.617V5.235h.617zm-.926.617h1.235v-.309h.309V4.926h-.309v-.309H13.23v.309h-.309v1.852h.309zm2.161 0h1.235v-.309h.309v-.617h-.617v.309H15.7V5.235h.617v.309h.617v-.617h-.309v-.309h-1.235v.309h-.309v1.852h.309zm1.852 0h.617v-.926h.617v.926h.617V5.852h-.309v-.309h.309v-.926h-.617v.926h-.617V4h-.617z" fill="#adc178"/></svg>