<svg xmlns="http://www.w3.org/2000/svg" width="108.336" height="37.039" viewBox="0 0 28.664 9.8"><path d="M4.33 5v2l.866-.5v-1l.866-.5v2l.866-.5v-1l.866-.5V4l.866-.5v-1zM0 2.5v2l.866.5V4l.866.5v2l.866.5V6l.866.5v-1l.866.5V5zm0 0L4.33 5l4.33-2.5L4.33 0zm4.157 4.6l.173.1.173-.1v2.6l-.173.1-.173-.1zm.346 0v2.6l3.984-2.3V3.8l-.52.3v1l-.866.5v1l-1.212.7v-2l-.52.3v1zM.173 4.8v2.6l3.984 2.3V6.1l-.52-.3v1l-.866-.5v1l-1.212-.7v-2l-.52-.3v1zm10.588 1.583h-.617V5.148h.617zM9.526 7h1.543v-.309h.309V4.839h-.309V4.53h-.926v-.617h-.617zm2.469 0h.617v-.617h-.309v-2.47h-.617v2.778h.309zm2.161-.617h-.617V5.148h.617zM13.23 7h1.235v-.309h.309V4.839h-.309V4.53H13.23v.309h-.309v1.852h.309zm2.161 0h1.235v-.309h.309v-.617h-.617v.309H15.7V5.148h.617v.309h.617V4.84h-.309v-.309H15.39v.309h-.309v1.852h.309zm1.852 0h.617v-.926h.617V7h.617V5.765h-.309v-.309h.309V4.53h-.617v.926h-.617V3.913h-.617zm2.161 0h.617V5.148h.309V7h.617V5.148h.309V7h.617V4.839h-.309V4.53h-.617v.309h-.309V4.53h-1.235zm4.013-.617H22.8v-.309h.617zM22.491 7h1.543V4.839h-.309V4.53h-1.543v.617h1.235v.309h-.926v.309h-.309v.926h.309zm2.161 0h.926v-.617h-.617V5.148h.617v-.617h-.617v-.617h-.617v2.778h.309zm1.235 0h.617V4.839h-.617zm0-2.469h.617v-.617h-.617zM27.121 7h1.235v-.309h.309v-.617h-.617v.309h-.617V5.148h.617v.309h.617V4.84h-.309v-.309h-1.235v.309h-.309v1.852h.309z"/></svg>