<?xml version="1.0" encoding="UTF-8" standalone="no"?>
<!-- Created with Inkscape (http://www.inkscape.org/) -->

<svg
   width="19.138197mm"
   height="3.0868111mm"
   viewBox="0 0 19.138197 3.0868111"
   version="1.1"
   id="svg1"
   xmlns="http://www.w3.org/2000/svg"
   xmlns:svg="http://www.w3.org/2000/svg">
  <defs
     id="defs1" />
  <g
     id="layer1"
     transform="translate(-78.808312,-164.50002)">
    <path
       id="path41"
       style="font-size:4.93889px;font-family:'Born2bSporty FS';-inkscape-font-specification:'Born2bSporty FS';fill:#a98467;fill-opacity:1;stroke-width:0.264583"
       d="m 88.686091,167.58681 h 0.617362 v -1.85208 h 0.30868 v 1.85208 h 0.617362 v -1.85208 h 0.30868 v 1.85208 h 0.617361 v -2.16076 h -0.30868 v -0.30868 h -0.617361 v 0.30868 h -0.308681 v -0.30868 h -1.234723 z m 4.012849,-0.61736 h -0.617362 v -0.30868 h 0.617362 z m -0.926042,0.61736 h 1.543403 v -2.16076 H 93.00762 v -0.30868 h -1.543403 v 0.61736 h 1.234723 v 0.30868 h -0.926042 v 0.30868 h -0.308681 v 0.92604 h 0.308681 z m 2.160765,0 h 0.926041 v -0.61736 h -0.617361 v -1.23472 h 0.617361 v -0.61736 H 94.242343 V 164.5 h -0.617361 v 2.77813 h 0.308681 z m 1.234722,0 h 0.617361 v -2.16076 h -0.617361 z m 0,-2.46944 h 0.617361 V 164.5 h -0.617361 z m 1.234723,2.46944 h 1.234722 v -0.30868 h 0.308681 v -0.61736 H 97.32915 v 0.30868 h -0.617362 v -1.23472 h 0.617362 v 0.30868 h 0.617361 v -0.61736 H 97.63783 v -0.30868 h -1.234722 v 0.30868 h -0.308681 v 1.85208 h 0.308681 z" />
    <path
       id="text27-9"
       style="font-size:4.93889px;font-family:'Born2bSporty FS';-inkscape-font-specification:'Born2bSporty FS';fill:#adc178;fill-opacity:1;stroke-width:0.264583"
       d="m 80.043034,166.96945 h -0.617361 v -1.23472 h 0.617361 z m -1.234723,0.61736 h 1.543404 v -0.30868 h 0.30868 v -1.85208 h -0.30868 v -0.30868 H 79.425673 V 164.5 h -0.617362 z m 2.469446,0 h 0.617361 v -0.61736 H 81.586437 V 164.5 h -0.617361 v 2.77813 h 0.308681 z m 2.160764,-0.61736 H 82.82116 v -1.23472 h 0.617361 z m -0.926042,0.61736 h 1.234722 v -0.30868 h 0.308681 v -1.85208 h -0.308681 v -0.30868 h -1.234722 v 0.30868 h -0.308681 v 1.85208 h 0.308681 z m 2.160765,0 h 1.234722 v -0.30868 h 0.308681 v -0.61736 h -0.617362 v 0.30868 h -0.617361 v -1.23472 h 0.617361 v 0.30868 h 0.617362 v -0.61736 h -0.308681 v -0.30868 h -1.234722 v 0.30868 h -0.308681 v 1.85208 h 0.308681 z m 1.852083,0 h 0.617361 v -0.92604 h 0.617362 v 0.92604 h 0.617361 v -1.23472 H 88.06873 v -0.30868 h 0.308681 v -0.92604 H 87.76005 v 0.92604 H 87.142688 V 164.5 h -0.617361 z" />
  </g>
</svg>
