<?xml version="1.0" encoding="UTF-8" standalone="no"?>
<!-- Created with Inkscape (http://www.inkscape.org/) -->

<svg
   width="8.6602516mm"
   height="9.8000154mm"
   viewBox="0 0 8.6602516 9.8000154"
   version="1.1"
   id="svg1"
   xmlns="http://www.w3.org/2000/svg"
   xmlns:svg="http://www.w3.org/2000/svg">
  <defs
     id="defs1" />
  <g
     id="layer1"
     transform="translate(-69.282027,-147.50001)">
    <path
       id="path22"
       style="fill:#ffffff;fill-opacity:1;stroke-width:0.264583"
       d="m 73.612157,152.49999 v 2 l 0.866024,-0.5 v -1 l 0.866026,-0.5 v 2 l 0.866026,-0.5 v -1 l 0.866024,-0.5 v -1 L 77.942283,151 v -1.00001 z m -4.330128,-2.5 v 2 l 0.866026,0.5 v -1 l 0.866026,0.5 v 2 l 0.866024,0.5 v -1 l 0.866026,0.5 v -1 l 0.866026,0.5 v -1 z m 0,0 4.330128,2.5 4.330126,-2.5 -4.330126,-2.5 z" />
    <path
       id="path27"
       style="fill:#ffffff;fill-opacity:1;stroke-width:0.264583"
       d="m 73.438953,154.6 0.173204,0.1 0.173204,-0.1 v 2.59999 L 73.612157,157.3 73.438953,157.19999 Z m 0.34641,0 v 2.6 l 3.983717,-2.3 v -3.6 l -0.519615,0.3 v 1 l -0.866025,0.5 v 1 l -1.212436,0.7 v -2 l -0.519615,0.3 v 1 z m -4.330127,-2.3 v 2.6 l 3.983717,2.3 v -3.6 l -0.519615,-0.3 v 1 l -0.866025,-0.5 v 1 l -1.212436,-0.7 v -2 l -0.519615,-0.3 v 1 z" />
  </g>
</svg>
